<?xml version="1.0" encoding="UTF-8" standalone="no"?>
<!DOCTYPE svg PUBLIC "-//W3C//DTD SVG 1.1//EN"
 "http://www.w3.org/Graphics/SVG/1.1/DTD/svg11.dtd">
<!-- Generated by graphviz version 5.0.0 (20220707.1540)
 -->
<!-- Title: dependencies Pages: 1 -->
<svg width="335pt" height="250pt"
 viewBox="0.00 0.00 335.00 249.80" xmlns="http://www.w3.org/2000/svg" xmlns:xlink="http://www.w3.org/1999/xlink">
<g id="graph0" class="graph" transform="scale(1 1) rotate(0) translate(4 245.8)">
<title>dependencies</title>
<polygon fill="white" stroke="transparent" points="-4,4 -4,-245.8 331,-245.8 331,4 -4,4"/>
<text text-anchor="middle" x="163.5" y="-8.2" font-family="sans-serif" font-size="14.00">dependencies</text>
<g id="clust1" class="cluster">
<title>cluster_AppModule</title>
<polygon fill="none" stroke="black" stroke-dasharray="1,5" points="8,-108.8 8,-233.8 298,-233.8 298,-108.8 8,-108.8"/>
</g>
<g id="clust3" class="cluster">
<title>cluster_AppModule_imports</title>
<polygon fill="none" stroke="black" points="154,-116.8 154,-168.8 290,-168.8 290,-116.8 154,-116.8"/>
</g>
<g id="clust6" class="cluster">
<title>cluster_AppModule_providers</title>
<polygon fill="none" stroke="black" points="16,-116.8 16,-168.8 146,-168.8 146,-116.8 16,-116.8"/>
</g>
<g id="clust7" class="cluster">
<title>cluster_GithubApiModule</title>
<polygon fill="none" stroke="black" stroke-dasharray="1,5" points="125,-32.8 125,-100.8 319,-100.8 319,-32.8 125,-32.8"/>
</g>
<g id="clust12" class="cluster">
<title>cluster_GithubApiModule_providers</title>
<polygon fill="none" stroke="black" points="133,-40.8 133,-92.8 311,-92.8 311,-40.8 133,-40.8"/>
</g>
<!-- GithubApiModule -->
<g id="node1" class="node">
<title>GithubApiModule</title>
<polygon fill="#8dd3c7" stroke="black" points="281.94,-160.8 278.94,-164.8 257.94,-164.8 254.94,-160.8 162.06,-160.8 162.06,-124.8 281.94,-124.8 281.94,-160.8"/>
<text text-anchor="middle" x="222" y="-138.6" font-family="Times,serif" font-size="14.00">GithubApiModule</text>
</g>
<!-- AppModule -->
<g id="node2" class="node">
<title>AppModule</title>
<polygon fill="#8dd3c7" stroke="black" points="192.66,-225.8 189.66,-229.8 168.66,-229.8 165.66,-225.8 109.34,-225.8 109.34,-189.8 192.66,-189.8 192.66,-225.8"/>
<text text-anchor="middle" x="151" y="-203.6" font-family="Times,serif" font-size="14.00">AppModule</text>
</g>
<!-- GithubApiModule&#45;&gt;AppModule -->
<g id="edge1" class="edge">
<title>GithubApiModule&#45;&gt;AppModule</title>
<path fill="none" stroke="black" d="M177.56,-160.91C177.56,-160.91 177.56,-179.79 177.56,-179.79"/>
<polygon fill="black" stroke="black" points="174.06,-179.79 177.56,-189.79 181.06,-179.79 174.06,-179.79"/>
</g>
<!-- AppService -->
<g id="node3" class="node">
<title>AppService</title>
<ellipse fill="#fdb462" stroke="black" cx="81" cy="-142.8" rx="56.75" ry="18"/>
<text text-anchor="middle" x="81" y="-138.6" font-family="Times,serif" font-size="14.00">AppService</text>
</g>
<!-- AppService&#45;&gt;AppModule -->
<g id="edge2" class="edge">
<title>AppService&#45;&gt;AppModule</title>
<path fill="none" stroke="black" d="M123.4,-155.03C123.4,-155.03 123.4,-179.48 123.4,-179.48"/>
<polygon fill="black" stroke="black" points="119.9,-179.48 123.4,-189.48 126.9,-179.48 119.9,-179.48"/>
</g>
<!-- GithubApiService -->
<g id="node4" class="node">
<title>GithubApiService</title>
<ellipse fill="#fdb462" stroke="black" cx="222" cy="-66.8" rx="81.11" ry="18"/>
<text text-anchor="middle" x="222" y="-62.6" font-family="Times,serif" font-size="14.00">GithubApiService</text>
</g>
<!-- GithubApiService&#45;&gt;GithubApiModule -->
<g id="edge3" class="edge">
<title>GithubApiService&#45;&gt;GithubApiModule</title>
<path fill="none" stroke="black" d="M222,-84.81C222,-84.81 222,-114.65 222,-114.65"/>
<polygon fill="black" stroke="black" points="218.5,-114.65 222,-124.65 225.5,-114.65 218.5,-114.65"/>
</g>
</g>
</svg>
